<?xml version="1.0" encoding="UTF-8" standalone="no"?>
<svg
   xmlns:dc="http://purl.org/dc/elements/1.1/"
   xmlns:cc="http://creativecommons.org/ns#"
   xmlns:rdf="http://www.w3.org/1999/02/22-rdf-syntax-ns#"
   xmlns:svg="http://www.w3.org/2000/svg"
   xmlns="http://www.w3.org/2000/svg"
   xmlns:sodipodi="http://sodipodi.sourceforge.net/DTD/sodipodi-0.dtd"
   xmlns:inkscape="http://www.inkscape.org/namespaces/inkscape"
   aria-hidden="true"
   focusable="false"
   data-prefix="fas"
   data-icon="user-friends"
   class="svg-inline--fa fa-user-friends fa-w-20"
   role="img"
   viewBox="0 0 640 512"
   version="1.1"
   id="svg41"
   sodipodi:docname="advice.svg"
   inkscape:version="0.92.4 (unknown)">
  <metadata
     id="metadata47">
    <rdf:RDF>
      <cc:Work
         rdf:about="">
        <dc:format>image/svg+xml</dc:format>
        <dc:type
           rdf:resource="http://purl.org/dc/dcmitype/StillImage" />
      </cc:Work>
    </rdf:RDF>
  </metadata>
  <defs
     id="defs45" />
  <sodipodi:namedview
     pagecolor="#ffffff"
     bordercolor="#666666"
     borderopacity="1"
     objecttolerance="10"
     gridtolerance="10"
     guidetolerance="10"
     inkscape:pageopacity="0"
     inkscape:pageshadow="2"
     inkscape:window-width="1920"
     inkscape:window-height="1002"
     id="namedview43"
     showgrid="false"
     inkscape:zoom="0.4609375"
     inkscape:cx="-489.17745"
     inkscape:cy="271.04455"
     inkscape:window-x="0"
     inkscape:window-y="41"
     inkscape:window-maximized="1"
     inkscape:current-layer="svg41" />
  <path
     fill="currentColor"
     d="M192 256c61.9 0 112-50.1 112-112S253.9 32 192 32 80 82.1 80 144s50.1 112 112 112zm76.8 32h-8.3c-20.8 10-43.9 16-68.5 16s-47.6-6-68.5-16h-8.3C51.6 288 0 339.6 0 403.2V432c0 26.5 21.5 48 48 48h288c26.5 0 48-21.5 48-48v-28.8c0-63.6-51.6-115.2-115.2-115.2zM480 256c53 0 96-43 96-96s-43-96-96-96-96 43-96 96 43 96 96 96zm48 32h-3.8c-13.9 4.8-28.6 8-44.2 8s-30.3-3.2-44.2-8H432c-20.4 0-39.2 5.9-55.7 15.4 24.4 26.3 39.7 61.2 39.7 99.8v38.4c0 2.2-.5 4.3-.6 6.4H592c26.5 0 48-21.5 48-48 0-61.9-50.1-112-112-112z"
     id="path39" />
  <path
     style="opacity:0.72399998;fill:#21b2a6;fill-opacity:1;stroke:none;stroke-width:2.16949153;stroke-opacity:1"
     d="M 28.854237,474.5799 C 19.320847,469.52945 10.581882,460.81503 5.8758882,451.66609 0.30955086,440.84455 -0.09509098,391.822 5.2337582,373.87173 17.321656,333.15355 47.960535,303.03618 87.871336,292.64074 c 18.972074,-4.9416 31.392194,-4.06705 53.538974,3.76987 18.69736,6.61631 21.44957,6.99969 50.15579,6.98677 28.78636,-0.013 31.44945,-0.38957 50.98305,-7.20999 17.99481,-6.28314 22.53792,-7.05847 35.80154,-6.10997 39.46077,2.82188 74.31513,26.73573 92.30731,63.33275 10.19886,20.74502 13.74086,40.64483 12.54293,70.46941 -0.72057,17.94032 -1.65933,22.1901 -6.86318,31.06981 -3.31564,5.65771 -10.0518,12.94964 -14.96923,16.20427 l -8.9408,5.91753 -158.53251,0.47833 C 52.59546,477.97586 34.65523,477.65306 28.854237,474.5799 Z"
     id="path79"
     inkscape:connector-curvature="0" />
  <path
     style="opacity:0.72399998;fill:#21b2a6;fill-opacity:1;stroke:none;stroke-width:2.16949153;stroke-opacity:1"
     d="M 164.89397,251.32123 C 127.63268,241.29184 97.316948,212.69117 86.36588,177.23574 80.495854,158.2308 80.473579,129.94979 86.313745,111.04153 110.18466,33.756511 208.57094,7.7024108 266.80218,63.245603 c 31.1557,29.717506 42.48079,67.028317 32.42066,106.810737 -7.60907,30.08978 -25.48258,53.75701 -53.0795,70.28531 -22.10447,13.23876 -55.8926,17.80469 -81.24937,10.97958 z"
     id="path81"
     inkscape:connector-curvature="0" />
  <path
     style="opacity:0.72399998;fill:#21b2a6;fill-opacity:1;stroke:none;stroke-width:2.16949153;stroke-opacity:1"
     d="M 158.73765,248.53914 C 107.09639,230.69069 76.585919,181.36857 84.038876,127.7838 91.449516,74.50327 137.68585,35.008742 192.65085,35.008742 c 29.03094,0 51.58195,9.112891 73.54103,29.718031 30.32231,28.452701 41.82378,67.148897 31.61164,106.355957 -9.75378,37.44729 -43.20817,70.81062 -79.36128,79.14525 -15.49576,3.57235 -47.06609,2.67934 -59.70459,-1.68884 z"
     id="path83"
     inkscape:connector-curvature="0" />
  <path
     style="opacity:0.72399998;fill:#21b2a6;fill-opacity:1;stroke:none;stroke-width:2.16949153;stroke-opacity:1"
     d="m 166.61695,250.1551 c -13.03753,-2.53508 -33.54282,-13.13223 -45.9779,-23.76141 -39.939422,-34.13918 -48.582773,-97.21708 -19.48933,-142.230286 29.6583,-45.88717 93.66832,-62.09592 142.31684,-36.037771 6.05273,3.242088 17.3596,12.240469 25.12638,19.996401 43.69786,43.636806 43.15069,108.607426 -1.29011,153.184466 -25.9935,26.0732 -61.96064,36.37852 -100.68588,28.8486 z"
     id="path85"
     inkscape:connector-curvature="0" />
  <path
     style="opacity:0.72399998;fill:#21b2a6;fill-opacity:1;stroke:none;stroke-width:2.16949153;stroke-opacity:1"
     d="M 26.684746,471.91424 C 17.952104,466.4722 9.006226,456.66337 6.3419073,449.60905 2.6196597,439.75365 1.2359747,408.49538 3.6808708,389.49463 9.249846,346.21481 39.472892,309.71203 81.248542,295.80999 c 19.494118,-6.48723 36.335328,-6.04172 59.334508,1.56959 16.90853,5.59568 21.14448,6.10395 50.98305,6.1175 30.2172,0.0137 33.8437,-0.43172 50.75541,-6.23429 16.20042,-5.55854 20.27594,-6.12614 36.88135,-5.1365 21.57989,1.2861 32.51268,5.08516 52.72058,18.31999 22.4901,14.72951 40.11591,40.52662 47.14255,68.99779 1.47243,5.9661 2.66294,22.45099 2.64559,36.63309 -0.028,22.83411 -0.62007,26.92924 -5.17307,35.77659 -2.82784,5.49502 -9.31328,13.17284 -14.41206,17.06182 l -9.27054,7.07087 -159.83134,-0.008 C 40.685679,475.9706 32.88812,475.78009 26.684746,471.91424 Z"
     id="path87"
     inkscape:connector-curvature="0" />
  <path
     style="opacity:0.72399998;fill:#21b2a6;fill-opacity:1;stroke:none;stroke-width:2.16949153;stroke-opacity:1"
     d="M 38.616949,473.96992 C 22.683756,471.62502 13.506129,464.39247 7.1449244,449.16797 2.0821044,437.05093 2.019799,392.49325 7.0413555,375.10094 16.689826,341.68318 36.852176,317.5651 68.074852,302.09305 c 18.283526,-9.0602 19.796475,-9.42637 38.716778,-9.3704 14.99627,0.0444 23.5683,1.33722 35.96091,5.42373 14.29207,4.71286 20.09749,5.36548 47.72882,5.36548 28.28257,0 33.71515,-0.64327 53.82465,-6.37336 21.16224,-6.03007 23.35184,-6.25136 40.64995,-4.10823 35.67857,4.42036 67.7824,27.86375 84.17083,61.46465 9.75195,19.9942 12.28362,32.97531 12.22218,62.66899 -0.0568,27.50057 -3.11465,35.91874 -18.01709,49.60219 l -10.04171,9.22034 -152.45526,-0.28987 C 116.98452,475.53714 43.986441,474.76014 38.616949,473.96992 Z"
     id="path89"
     inkscape:connector-curvature="0" />
  <path
     style="opacity:0.72399998;fill:#21b2a6;fill-opacity:1;stroke:none;stroke-width:2.16949153;stroke-opacity:1"
     d="M 44.040678,473.97958 C 35.688136,473.26168 26.76293,471.489 24.206885,470.0403 16.89628,465.89681 8.6184433,454.90439 6.1700476,446.08856 2.7704279,433.8477 3.3789019,389.96905 7.1489866,375.49472 16.002497,341.5038 38.059455,316.03915 72.938689,299.54083 c 13.017596,-6.15749 16.478102,-6.84321 34.017241,-6.74072 14.40509,0.0842 23.79237,1.48021 35.79661,5.32348 14.09616,4.51302 20.47624,5.20885 47.72882,5.20546 28.07076,-0.003 33.85801,-0.67789 53.75268,-6.26382 21.31747,-5.98542 23.10591,-6.15142 40.78647,-3.78578 25.15584,3.36581 43.2889,12.45541 61.9802,31.06892 24.36452,24.26314 34.40887,51.08981 34.38379,91.83313 -0.0174,27.14244 -2.56932,34.78686 -16.16685,48.41511 l -11.36414,11.38983 -147.3132,-0.35079 C 125.51805,475.44271 52.39322,474.69749 44.040678,473.97958 Z"
     id="path91"
     inkscape:connector-curvature="0" />
  <path
     style="opacity:0.72399998;fill:#21b2a6;fill-opacity:1;stroke:none;stroke-width:2.16949153;stroke-opacity:1"
     d="m 41.871186,473.97544 c -18.79058,-1.94786 -27.860423,-8.37521 -34.6083189,-24.5252 -4.5812155,-10.96439 -4.6033204,-56.71939 -0.035874,-74.255 8.2885809,-31.82201 29.9951939,-57.81373 61.1926339,-73.27267 17.947707,-8.89343 19.459415,-9.25373 38.372743,-9.14551 13.89433,0.0795 24.22734,1.51613 35.10933,4.88136 13.02758,4.02875 20.5505,4.7687 48.4822,4.7687 29.0194,0 35.80026,-0.72024 55.45815,-5.89058 21.17983,-5.57064 23.35688,-5.75058 40.08149,-3.31294 24.36707,3.55153 42.84368,12.96716 61.07717,31.12477 24.36452,24.26314 34.40887,51.08981 34.38379,91.83313 -0.0174,26.50948 -2.56186,34.33404 -15.68371,48.20843 l -10.96747,11.59651 -149.9226,-0.33082 C 122.3533,475.47367 49.030508,474.71759 41.871186,473.97544 Z"
     id="path93"
     inkscape:connector-curvature="0" />
  <path
     style="opacity:0.72399998;fill:#21b2a6;fill-opacity:1;stroke:none;stroke-width:2.16949153;stroke-opacity:1"
     d="m 167.08838,250.22264 c -27.18536,-5.35665 -58.7565,-30.27884 -71.282306,-56.2701 -9.68551,-20.09759 -12.38314,-34.02498 -11.083132,-57.22027 1.363397,-24.32631 7.020259,-40.179249 20.821998,-58.352121 18.50906,-24.371037 47.80842,-39.913175 79.41849,-42.128327 32.62919,-2.286569 58.77507,7.413591 82.04621,30.439259 44.85425,44.381119 45.0206,109.607109 0.39337,154.234339 -26.33397,26.33397 -62.1972,36.80794 -100.31463,29.29722 z"
     id="path95"
     inkscape:connector-curvature="0" />
  <path
     style="opacity:0.72399998;fill:#21b2a6;fill-opacity:1;stroke:none;stroke-width:2.16949153;stroke-opacity:1"
     d="m 450.50839,249.6733 c -25.89339,-8.82593 -45.06658,-26.05602 -56.74271,-50.99211 -12.62633,-26.96544 -10.18875,-63.77027 5.89231,-88.9672 17.68207,-27.705496 46.95085,-43.761448 79.77381,-43.761448 38.41792,0 70.26415,20.481588 87.09941,56.017118 6.36835,13.44218 6.86162,16.1406 6.81319,37.27102 -0.0429,18.7118 -0.95598,25.04359 -5.11326,35.45745 -18.3921,46.07165 -71.32431,70.79038 -117.72275,54.97517 z"
     id="path97"
     inkscape:connector-curvature="0" />
  <path
     style="opacity:0.72399998;fill:#21b2a6;fill-opacity:1;stroke:none;stroke-width:2.16949153;stroke-opacity:1"
     d="m 449.55325,248.40478 c -15.49212,-5.68141 -26.35967,-13.03147 -38.47787,-26.02378 -42.81059,-45.89856 -27.73,-120.52327 29.66621,-146.80012 45.60953,-20.880737 98.56997,-2.289166 123.29199,43.28122 7.05604,13.00648 7.19354,13.77916 7.19354,40.4242 0,26.23441 -0.24014,27.65205 -7.01533,41.41442 -8.90358,18.08574 -26.10238,34.59189 -45.57634,43.74084 -12.97265,6.09461 -17.163,6.95306 -36.35748,7.44835 -16.83033,0.43429 -24.1681,-0.34717 -32.72472,-3.48513 z"
     id="path99"
     inkscape:connector-curvature="0" />
  <path
     style="opacity:0.72399998;fill:#21b2a6;fill-opacity:1;stroke:none;stroke-width:2.16949153;stroke-opacity:1"
     d="m 458.09909,250.27366 c -23.89413,-4.72905 -50.34793,-26.35113 -61.56413,-50.31959 -16.36819,-34.97803 -10.31079,-75.33061 15.38678,-102.501997 20.74664,-21.936511 42.28869,-30.424771 73.43478,-28.935657 15.28789,0.730923 21.37154,2.147821 33.40994,7.781269 17.88204,8.368018 37.17934,26.924015 45.52456,43.775735 5.43762,10.98034 5.85135,13.78425 5.85135,39.65509 0,26.84491 -0.2412,28.31711 -6.75281,41.21654 -8.104,16.05392 -25.39658,33.29366 -41.63864,41.51139 -17.28827,8.74707 -42.99931,11.9047 -63.65183,7.81722 z"
     id="path101"
     inkscape:connector-curvature="0" />
  <path
     style="opacity:0.72399998;fill:#21b2a6;fill-opacity:1;stroke:none;stroke-width:2.16949153;stroke-opacity:1"
     d="m 457.81156,250.35236 c -23.45028,-4.94436 -49.31238,-26.44218 -61.43584,-51.06843 -9.07567,-18.4353 -11.19854,-44.68089 -5.27414,-65.20562 8.47992,-29.3782 30.02824,-51.578228 59.89866,-61.710243 11.59623,-3.933428 17.27232,-4.55187 33.97939,-3.702244 17.0517,0.867151 22.21257,2.080907 34.43726,8.099099 17.51361,8.621923 36.90183,27.383858 44.91494,43.464068 5.37989,10.79603 5.81054,13.69327 5.81054,39.09114 0,26.16504 -0.30168,28.03463 -6.53736,40.51334 -9.00699,18.02458 -25.80443,34.33352 -44.44569,43.15313 -12.33674,5.8368 -18.64678,7.38559 -33.62712,8.25372 -10.14237,0.58777 -22.61666,0.18818 -27.72064,-0.88796 z"
     id="path103"
     inkscape:connector-curvature="0" />
  <path
     style="opacity:0.72399998;fill:#21b2a6;fill-opacity:1;stroke:none;stroke-width:2.16949153;stroke-opacity:1"
     d="m 416.10847,415.69456 c 0,-46.10303 -7.75188,-72.97381 -29.13266,-100.98416 -4.26178,-5.58323 -7.74869,-10.61792 -7.74869,-11.18819 0,-1.59415 15.02941,-7.72646 27.11864,-11.06496 13.98354,-3.86163 27.39093,-3.79597 42.30509,0.20716 15.3227,4.11278 47.59255,4.11278 62.91525,0 15.91028,-4.2705 28.60189,-4.07215 45.87278,0.71692 40.65524,11.27336 72.85655,47.21635 79.94352,89.2327 4.78742,28.38308 -3.36358,47.80498 -24.93494,59.41405 -8.44199,4.54323 -11.2294,4.68788 -102.50848,5.31944 l -93.83051,0.64922 z"
     id="path105"
     inkscape:connector-curvature="0" />
  <path
     style="opacity:0.72399998;fill:#21b2a6;fill-opacity:1;stroke:none;stroke-width:2.16949153;stroke-opacity:1"
     d="m 416.10847,417.62867 c 0,-47.77714 -6.21144,-71.50567 -26.164,-99.95001 -4.93815,-7.03981 -8.41596,-13.70981 -7.72846,-14.8222 0.6875,-1.1124 8.0545,-4.21048 16.37111,-6.88462 12.71832,-4.08949 17.98354,-4.65038 33.13479,-3.52975 47.92015,3.54431 65.59746,3.8562 78.1864,1.37948 26.41136,-5.19612 52.69727,-1.09348 73.25101,11.43282 39.88042,24.3048 64.92668,80.82296 50.19123,113.25913 -5.02612,11.06368 -17.42099,21.99252 -27.92545,24.6225 -4.49024,1.12421 -48.92341,2.64214 -98.74035,3.37317 l -90.57628,1.32916 z"
     id="path107"
     inkscape:connector-curvature="0" />
  <path
     style="opacity:0.72399998;fill:#21b2a6;fill-opacity:1;stroke:none;stroke-width:2.16949153;stroke-opacity:1"
     d="m 416.03279,417.95254 c -0.12091,-47.64946 -5.32588,-68.69618 -24.13833,-97.60518 -4.84518,-7.44556 -8.28267,-14.91007 -7.63886,-16.58781 1.73151,-4.51224 22.52106,-10.77851 36.19186,-10.90876 6.56271,-0.0625 25.25716,0.73904 41.54322,1.78125 21.64849,1.38536 35.1541,1.13388 50.22462,-0.93524 48.07198,-6.60007 87.35299,12.68938 110.57506,54.29933 22.2006,39.77963 18.21923,77.09104 -9.74864,91.35918 -8.38575,4.27809 -13.90455,4.65841 -92.62008,6.38273 -46.03665,1.00847 -88.34028,1.88115 -94.00808,1.9393 l -10.30509,0.10571 z"
     id="path109"
     inkscape:connector-curvature="0" />
  <path
     style="opacity:0.72399998;fill:#21b2a6;fill-opacity:1;stroke:none;stroke-width:2.16949153;stroke-opacity:1"
     d="m 416.10847,422.43878 c 0,-49.77528 -5.63397,-73.58984 -24.12338,-101.96847 -4.89503,-7.51318 -8.3733,-15.03302 -7.72949,-16.71076 1.41032,-3.67524 18.75477,-9.54692 30.76813,-10.41605 4.77288,-0.3453 24.40287,0.19771 43.6222,1.2067 24.95859,1.31029 40.53389,1.07067 54.5049,-0.83856 36.51361,-4.98982 66.47679,4.65836 90.65832,29.19208 21.22594,21.53507 35.63214,56.3114 32.89633,79.41109 -1.82047,15.37106 -8.78916,27.34084 -20.08997,34.50761 -9.28365,5.88751 -11.24973,6.22987 -42.74625,7.44355 -18.15826,0.69971 -61.08282,1.86917 -95.3879,2.5988 l -62.37289,1.32661 z"
     id="path111"
     inkscape:connector-curvature="0" />
  <path
     style="opacity:0.72399998;fill:#21b2a6;fill-opacity:1;stroke:none;stroke-width:2.16949153;stroke-opacity:1"
     d="m 455.00605,249.70924 c -23.94704,-6.81161 -46.90749,-26.61284 -58.74824,-50.66481 -6.10234,-12.3956 -7.21841,-17.22171 -7.9731,-34.47708 -0.65888,-15.0646 0.0619,-22.9579 2.89274,-31.67835 9.4921,-29.24071 30.62029,-50.615474 59.82279,-60.520933 11.59623,-3.933428 17.27232,-4.55187 33.97939,-3.702244 17.0517,0.867151 22.21257,2.080907 34.43726,8.099099 17.51361,8.621923 36.90183,27.383858 44.91494,43.464068 5.37989,10.79603 5.81054,13.69327 5.81054,39.09114 0,26.16504 -0.30168,28.03463 -6.53736,40.51334 -8.96626,17.94305 -25.7965,34.31219 -44.4503,43.23245 -12.68934,6.06805 -18.40581,7.44549 -34.71187,8.36412 -12.69198,0.71503 -22.98965,0.11306 -29.43679,-1.7208 z"
     id="path113"
     inkscape:connector-curvature="0" />
  <path
     style="opacity:0.72399998;fill:#21b2a6;fill-opacity:1;stroke:none;stroke-width:2.16949153;stroke-opacity:1"
     d="m 456.7776,250.31875 c -24.47255,-6.20431 -48.26416,-26.37959 -60.55904,-51.35406 -6.93232,-14.08154 -7.2275,-15.7085 -7.19881,-39.67839 0.0267,-22.32374 0.6294,-26.26989 5.63971,-36.92698 3.08539,-6.56271 10.14746,-16.95429 15.69348,-23.092396 20.72581,-22.938456 43.53081,-32.255241 75.24121,-30.739147 15.97355,0.763705 21.21436,2.030062 33.56573,8.110619 17.77869,8.752421 37.10484,27.402014 45.17195,43.590594 5.37989,10.79603 5.81054,13.69327 5.81054,39.09114 0,26.17998 -0.29885,28.02897 -6.5535,40.54563 -9.10623,18.22318 -25.61283,34.31213 -44.31502,43.19375 -12.84694,6.10099 -18.45091,7.43596 -34.83101,8.2974 -10.73644,0.56465 -23.1858,0.0975 -27.66524,-1.03816 z"
     id="path115"
     inkscape:connector-curvature="0" />
  <path
     style="opacity:0.72399998;fill:#21b2a6;fill-opacity:1;stroke:none;stroke-width:2.16949153;stroke-opacity:1"
     d="m 416.10847,423.54923 c 0,-48.29287 -5.61509,-73.08553 -22.79551,-100.65039 -5.36077,-8.601 -9.74686,-16.77555 -9.74686,-18.16566 0,-3.10298 12.26073,-8.39901 24.91922,-10.76387 5.17965,-0.96766 24.87821,-0.83523 43.77458,0.2943 25.04518,1.49706 40.86016,1.32911 58.35089,-0.61968 40.3577,-4.4966 68.02386,3.95001 92.22296,28.15611 38.70696,38.71818 45.43813,94.9465 13.77032,115.02962 -11.34668,7.19585 -18.60035,7.74166 -133.78373,10.06659 l -66.71187,1.34655 z"
     id="path117"
     inkscape:connector-curvature="0" />
  <path
     style="opacity:0.72399998;fill:#21b2a6;fill-opacity:1;stroke:none;stroke-width:2.16949153;stroke-opacity:1"
     d="m 454.07458,249.63553 c -25.93378,-8.66756 -46.8344,-26.91665 -58.12369,-50.74993 -6.57962,-13.89049 -6.96106,-16.0629 -6.96106,-39.64492 0,-22.56327 0.55931,-26.14265 5.8487,-37.42947 6.73272,-14.36667 24.24056,-33.847621 37.29487,-41.49796 15.48222,-9.073184 32.36152,-12.79424 53.46075,-11.785473 16.03945,0.766855 21.20532,2.023616 33.84033,8.232726 18.08813,8.88889 36.71716,26.876847 44.85654,43.312917 5.41765,10.94001 5.85123,13.83447 5.84964,39.05085 -0.002,25.49466 -0.40042,28.07784 -6.24099,40.42359 -8.50831,17.98475 -25.38598,34.3747 -44.9794,43.67957 -13.56286,6.44097 -18.47367,7.58666 -35.9386,8.38441 -13.42312,0.61314 -23.14879,-0.0518 -28.90709,-1.97631 z"
     id="path119"
     inkscape:connector-curvature="0" />
</svg>
