<?xml version="1.0" encoding="UTF-8" standalone="no"?>
<!-- Generator: Adobe Illustrator 17.1.0, SVG Export Plug-In . SVG Version: 6.00 Build 0)  -->

<svg
   xmlns:dc="http://purl.org/dc/elements/1.1/"
   xmlns:cc="http://creativecommons.org/ns#"
   xmlns:rdf="http://www.w3.org/1999/02/22-rdf-syntax-ns#"
   xmlns:svg="http://www.w3.org/2000/svg"
   xmlns="http://www.w3.org/2000/svg"
   xmlns:sodipodi="http://sodipodi.sourceforge.net/DTD/sodipodi-0.dtd"
   xmlns:inkscape="http://www.inkscape.org/namespaces/inkscape"
   version="1.1"
   id="Capa_1"
   x="0px"
   y="0px"
   viewBox="0 0 191.99 191.99"
   style="enable-background:new 0 0 191.99 191.99;"
   xml:space="preserve"
   sodipodi:docname="grandfathered.svg"
   inkscape:version="0.92.4 (unknown)"><metadata
   id="metadata86"><rdf:RDF><cc:Work
       rdf:about=""><dc:format>image/svg+xml</dc:format><dc:type
         rdf:resource="http://purl.org/dc/dcmitype/StillImage" /></cc:Work></rdf:RDF></metadata><defs
   id="defs84" /><sodipodi:namedview
   pagecolor="#ffffff"
   bordercolor="#666666"
   borderopacity="1"
   objecttolerance="10"
   gridtolerance="10"
   guidetolerance="10"
   inkscape:pageopacity="0"
   inkscape:pageshadow="2"
   inkscape:window-width="1920"
   inkscape:window-height="1002"
   id="namedview82"
   showgrid="false"
   inkscape:zoom="1.7383947"
   inkscape:cx="76.965302"
   inkscape:cy="170.24451"
   inkscape:window-x="0"
   inkscape:window-y="41"
   inkscape:window-maximized="1"
   inkscape:current-layer="Capa_1" />
<path
   d="M187.99,13.128c-0.004,0-0.009,0-0.014,0c-2.202,0.007-3.984,1.793-3.987,3.995l0,0.494  c-0.182,17.381-17.137,46.657-23.656,56.475c-6.666,10.036-15.593,14.695-20.745,16.675c-1.341-8.707-5.56-26.238-18.129-31.752  l-0.431-0.189c-7.092-3.102-15.996-4.81-25.069-4.81c-9.074,0-17.978,1.708-25.08,4.814l-0.429,0.188  C57.886,64.53,53.669,82.06,52.328,90.766c-5.158-1.98-14.081-6.64-20.745-16.674C25.071,64.286,8.141,35.016,8,17.559v-0.431  c0-2.203-1.781-3.991-3.984-4c-0.005,0-0.011,0-0.016,0c-2.195,0-3.982,1.771-4,3.969v64.652c0,53.157,42.721,96.72,95.231,97.109  l0.727,0.003c0.003,0,0.002,0,0.005,0c25.629,0,49.727-9.981,67.848-28.104c18.124-18.124,28.104-42.222,28.104-67.85l0.073-65.249  c0.001-0.188,0.002-0.375,0-0.563C191.972,14.9,190.186,13.128,187.99,13.128z M118.657,123.553  c-1.756,2.108-4.126,3.179-7.248,3.271c-0.213,0.006-0.42,0.009-0.623,0.009h-0.002c-2.893,0-4.237-0.641-4.509-1.189  c-1.024-2.067,1.999-8.584,5.383-13.026c0.925-1.209,1.083-2.838,0.41-4.202c-0.674-1.365-2.064-2.229-3.586-2.229H83.434  c-1.521,0-2.909,0.864-3.583,2.227s-0.517,2.992,0.405,4.201c3.388,4.445,6.412,10.962,5.388,13.029  c-0.272,0.549-1.617,1.189-4.512,1.189c-0.203,0-0.412-0.003-0.625-0.009c-3.122-0.092-5.492-1.162-7.248-3.271  c-4.835-5.808-4.193-18.113-3.539-22.36c0.012-0.077,0.022-0.154,0.03-0.232c0.013-0.129,1.464-13.043,8.827-15.535  c7.542-2.555,14.252-5.69,17.381-7.227c3.129,1.536,9.839,4.672,17.381,7.227c6.162,2.086,8.461,11.928,8.827,15.535  c0.007,0.075,0.018,0.154,0.029,0.229C122.85,105.44,123.492,117.746,118.657,123.553z"
   id="path49"
   style="fill:#21b2a6;stroke:none;stroke-opacity:1;fill-opacity:1;opacity:0.724" />
<g
   id="g51">
</g>
<g
   id="g53">
</g>
<g
   id="g55">
</g>
<g
   id="g57">
</g>
<g
   id="g59">
</g>
<g
   id="g61">
</g>
<g
   id="g63">
</g>
<g
   id="g65">
</g>
<g
   id="g67">
</g>
<g
   id="g69">
</g>
<g
   id="g71">
</g>
<g
   id="g73">
</g>
<g
   id="g75">
</g>
<g
   id="g77">
</g>
<g
   id="g79">
</g>
<path
   style="fill:#21b2a6;stroke:none;stroke-opacity:1;fill-opacity:1;opacity:0.724"
   d="M 81.095781,177.22414 C 60.951274,174.08747 42.100735,163.98294 27.156873,148.31109 14.053171,134.56903 6.2568275,119.51398 2.3718959,100.4503 0.86418444,93.051832 0.73216528,89.29984 0.73216528,53.849061 c 0,-39.971192 0.0439088,-40.507383 3.31716042,-40.507383 2.2455966,0 3.1245872,1.845506 4.0508441,8.50505 1.1176348,8.035497 4.5169472,17.743384 10.5527702,30.137007 6.038882,12.399904 12.849246,23.298792 17.724503,28.365203 4.163908,4.327171 10.98345,9.088797 14.157961,9.885549 1.921078,0.48216 2.080545,0.230452 3.452552,-5.449592 2.764977,-11.446891 8.004506,-20.152701 14.548111,-24.172613 12.141599,-7.458911 39.651493,-7.919264 53.422203,-0.893972 6.91366,3.527086 13.24586,13.416899 15.95893,24.92513 1.64295,6.968985 2.14793,7.18408 8.07185,3.438147 8.48983,-5.36845 12.87743,-10.338732 20.26523,-22.956464 9.67943,-16.531636 16.05858,-32.280609 17.73546,-43.785686 0.82652,-5.670715 1.2243,-6.691303 2.90676,-7.457887 1.6597,-0.756208 2.17669,-0.607209 3.48068,1.003163 1.44184,1.780586 1.53072,3.7549 1.5186,33.731699 -0.007,17.512229 -0.36186,36.050367 -0.78838,41.195862 -1.06906,12.896916 -4.00161,23.792176 -9.33416,34.679026 -18.65218,38.08004 -59.0132,59.22035 -100.677459,52.73284 z m 4.146016,-50.72698 c 1.684175,-1.06666 0.561254,-5.50131 -2.811116,-11.10167 -2.400433,-3.98633 -2.743033,-5.10228 -2.040065,-6.64512 0.833351,-1.829 1.04214,-1.85424 15.34289,-1.85424 18.281764,0 18.643764,0.22815 13.614334,8.58034 -3.32807,5.52683 -4.43895,9.95882 -2.76234,11.02069 1.70264,1.07837 6.13101,0.87614 9.23751,-0.42185 4.47178,-1.86842 6.37241,-6.49294 6.78013,-16.49701 0.27534,-6.75599 0.0247,-9.33288 -1.34743,-13.850139 -2.14243,-7.053467 -4.3175,-9.133164 -13.36802,-12.781836 -3.92528,-1.582454 -8.222074,-3.43837 -9.548432,-4.124259 -2.254671,-1.165935 -2.663431,-1.121465 -6.282792,0.683517 -2.129177,1.061822 -6.472683,2.911891 -9.652232,4.111264 -6.571433,2.478835 -8.418761,4.128222 -11.050445,9.866387 -1.607679,3.505415 -1.862125,5.385656 -1.87015,13.819656 -0.0081,8.53939 0.223813,10.23536 1.851666,13.53959 1.192931,2.42142 2.799081,4.23994 4.474344,5.06596 2.861095,1.4107 7.66126,1.71032 9.432148,0.58872 z"
   id="path1466"
   inkscape:connector-curvature="0" /><path
   style="opacity:0.72399998;fill:#21b2a6;fill-opacity:1;stroke:none;stroke-width:0.10168962;stroke-opacity:1"
   d="m 108.41951,127.05576 c -0.57748,-0.0883 -1.42432,-0.36041 -1.75731,-0.56463 -0.1835,-0.11255 -0.43431,-0.39451 -0.55734,-0.62657 -0.18927,-0.35701 -0.22145,-0.57059 -0.20915,-1.38798 0.0323,-2.14583 1.24053,-5.20866 3.65042,-9.25376 1.84755,-3.1012 2.58505,-4.71135 2.58505,-5.64383 0,-1.13387 -0.6311,-1.69439 -2.3897,-2.12249 -1.91209,-0.46545 -4.67328,-0.57059 -14.948379,-0.56921 -11.998338,0.002 -13.157455,0.0934 -14.012476,1.10952 -0.287251,0.34138 -0.646049,1.22195 -0.741747,1.82041 -0.135188,0.84541 0.547822,2.53819 2.049642,5.07985 0.373326,0.63181 0.657687,1.16984 0.631912,1.19561 -0.02577,0.0258 -0.278592,-0.331 -0.561817,-0.79283 -0.283225,-0.46184 -0.907897,-1.38883 -1.388161,-2.05998 -0.953825,-1.33293 -1.281641,-2.11125 -1.281641,-3.04294 0,-1.50831 0.930209,-2.9492 2.326658,-3.60398 l 0.571496,-0.26797 h 13.577704 13.577699 l 0.67764,0.3336 c 1.84091,0.90628 2.69648,3.15707 1.90203,5.00381 -0.11815,0.27465 -0.54773,0.9663 -0.95462,1.53699 -3.12668,4.38543 -5.29708,9.33245 -5.11107,11.64974 0.0285,0.35437 0.12951,0.76302 0.22458,0.90812 0.22704,0.3465 1.0618,0.72043 2.05273,0.91952 1.00402,0.20172 3.66608,0.22792 4.69395,0.0462 1.06254,-0.18785 1.01805,-0.0676 -0.0525,0.14196 -0.86716,0.16977 -3.87063,0.29559 -4.55556,0.19084 z"
   id="path1468"
   inkscape:connector-curvature="0" /><path
   style="opacity:0.72399998;fill:#21b2a6;fill-opacity:1;stroke:none;stroke-width:0.10168962;stroke-opacity:1"
   d="m 52.642753,89.209568 c 0,-0.06396 0.158338,-0.913241 0.351862,-1.887288 2.841473,-14.301739 8.971166,-24.365822 17.112227,-28.095838 5.432771,-2.48915 11.996454,-4.138631 19.449244,-4.887676 2.565665,-0.257863 10.377444,-0.255932 12.863734,0.0032 7.35677,0.766692 13.17548,2.188343 18.6092,4.546673 2.19324,0.951904 3.83387,1.973073 5.61331,3.493878 4.81309,4.113504 8.6712,11.06297 11.12855,20.04542 0.5112,1.868618 1.44409,6.100026 1.38436,6.279209 -0.0591,0.177465 -0.57341,-1.549794 -1.1883,-3.991193 -0.73472,-2.917213 -1.25805,-4.632829 -2.06132,-6.75756 -2.2188,-5.868917 -5.28296,-10.858625 -8.87293,-14.448756 -2.4373,-2.437401 -4.39963,-3.704346 -7.83408,-5.057929 -5.03911,-1.98601 -11.31265,-3.213721 -18.6092,-3.641758 -2.267267,-0.133004 -8.991647,-0.0685 -10.931635,0.104866 -9.688295,0.86578 -17.138054,2.953223 -21.823696,6.115062 -5.428427,3.663064 -9.931743,10.633256 -12.806556,19.82187 -0.201232,0.643186 -0.685454,2.427839 -1.076048,3.965895 -0.81444,3.207043 -1.308722,4.865808 -1.308722,4.391945 z"
   id="path1470"
   inkscape:connector-curvature="0" /><path
   style="opacity:0.72399998;fill:#21b2a6;fill-opacity:1;stroke:none;stroke-width:0.10168962;stroke-opacity:1"
   d="M 11.886487,128.31536 C 11.079614,126.97328 9.0819051,122.8559 7.9387022,120.17877 3.9731879,110.89243 1.5507201,101.48758 0.53303655,91.427448 0.11382623,87.283419 0.12006353,87.889316 0.12006353,51.310892 V 16.126283 l 0.27253389,-0.581468 c 0.34196956,-0.729613 1.04193778,-1.485438 1.71483088,-1.851672 0.5420535,-0.295022 0.7977722,-0.309173 0.3559781,-0.0197 -0.6826202,0.44727 -1.1271982,2.18525 -1.3687922,5.350993 -0.31969879,4.189192 -0.36418695,8.519186 -0.36097892,35.133764 0.003548,29.438265 0.0666137,33.838557 0.56548032,39.455573 0.4361883,4.911287 2.0912859,12.386137 4.168678,18.826837 1.6799051,5.20834 4.3442205,11.41815 6.7237974,15.67137 0.280277,0.50096 0.286203,0.53387 0.09614,0.53387 -0.119965,0 -0.28356,-0.13475 -0.401243,-0.33049 z"
   id="path1472"
   inkscape:connector-curvature="0" /><path
   style="opacity:0.72399998;fill:#21b2a6;fill-opacity:1;stroke:none;stroke-width:0.10168962;stroke-opacity:1"
   d=""
   id="path1474"
   inkscape:connector-curvature="0" /><path
   style="opacity:0.72399998;fill:#21b2a6;fill-opacity:1;stroke:none;stroke-width:0.02542241;stroke-opacity:1"
   d="M 36.254335,80.20413 C 31.933766,75.599719 26.544748,67.277239 21.03142,56.694761 20.566404,55.802192 18.646941,51.967935 18.355636,51.3497 L 18.17296,50.962008 h 0.153024 0.153025 l 0.45269,0.921562 c 3.446103,7.01539 8.340969,15.653008 12.263673,21.640823 1.634107,2.494385 3.139461,4.425082 4.945512,6.34289 0.19093,0.202744 0.408581,0.434406 0.48367,0.514804 l 0.136525,0.146179 h -0.101295 c -0.09691,0 -0.114456,-0.01403 -0.405449,-0.324136 z"
   id="path1476"
   inkscape:connector-curvature="0" /><path
   style="opacity:0.72399998;fill:#21b2a6;fill-opacity:1;stroke:none;stroke-width:0.03595271;stroke-opacity:1"
   d="M 17.887066,50.361915 C 15.537902,45.468288 13.26278,40.098099 11.798216,35.989819 11.522757,35.217121 10.9042,33.411458 10.834479,33.176519 l -0.05602,-0.188752 h 0.115836 0.115836 l 0.174436,0.530303 c 1.446787,4.398377 3.765455,10.053937 6.349211,15.48663 0.300941,0.632768 0.633746,1.332497 0.739568,1.554955 l 0.192404,0.404468 h -0.144801 -0.144801 z"
   id="path1478"
   inkscape:connector-curvature="0" /><path
   style="opacity:0.72399998;fill:#21b2a6;fill-opacity:1;stroke:none;stroke-width:0.05084481;stroke-opacity:1"
   d="M 10.516039,32.145817 C 9.4902185,28.923802 8.6749229,25.477426 8.2036251,22.370902 7.6232534,18.54543 7.3962684,17.39011 6.9699263,16.091568 6.6286662,15.052166 6.2908717,14.440234 5.802415,13.976561 5.5091831,13.698207 5.2969535,13.569355 4.9206118,13.441186 c -0.3804916,-0.129582 -1.6377817,-0.13329 -1.9812726,-0.0058 -0.1737,0.06445 -0.2362447,0.06983 -0.2658898,0.02286 -0.026718,-0.04233 0.051759,-0.09204 0.2525489,-0.159978 0.2374102,-0.08033 0.4371351,-0.09891 1.0794069,-0.100392 0.7329229,-0.0017 0.8165702,0.0081 1.194853,0.139527 0.6185848,0.214963 1.1192431,0.520381 1.5560093,0.949216 0.8655241,0.849808 1.2150329,1.739738 1.2150329,3.09375 0,3.907374 1.0252922,9.383721 2.7680366,14.784787 0.127494,0.395126 0.231807,0.732609 0.231807,0.749961 0,0.01735 -0.04503,0.03155 -0.100073,0.03155 -0.08451,0 -0.139733,-0.124568 -0.355032,-0.800806 z"
   id="path1480"
   inkscape:connector-curvature="0" /><path
   style="opacity:0.72399998;fill:#21b2a6;fill-opacity:1;stroke:none;stroke-width:0.10168962;stroke-opacity:1"
   d=""
   id="path1482"
   inkscape:connector-curvature="0" /><path
   style="opacity:0.72399998;fill:#21b2a6;fill-opacity:1;stroke:none;stroke-width:0.10168962;stroke-opacity:1"
   d=""
   id="path1484"
   inkscape:connector-curvature="0" /><path
   style="opacity:0.72399998;fill:#21b2a6;fill-opacity:1;stroke:none;stroke-width:0.02542241;stroke-opacity:1"
   d="m 53.098364,168.57315 c -2.358668,-1.2065 -4.48738,-2.4003 -6.66067,-3.73537 -10.441505,-6.41426 -19.599122,-14.77869 -26.989309,-24.65162 -0.3267,-0.43645 -0.594001,-0.79968 -0.594001,-0.80716 0,-0.007 0.148303,-0.0136 0.329562,-0.0136 h 0.329563 l 0.196923,0.26058 c 0.916862,1.21324 2.441649,3.09826 3.552453,4.39172 4.11674,4.79367 8.462191,9.05507 13.159818,12.90527 5.48783,4.49785 11.400855,8.36769 17.578157,11.50419 l 0.991473,0.50341 H 54.394907 53.79748 l -0.699116,-0.35761 z"
   id="path1486"
   inkscape:connector-curvature="0" /><path
   style="opacity:0.72399998;fill:#21b2a6;fill-opacity:1;stroke:none;stroke-width:0.02542241;stroke-opacity:1"
   d=""
   id="path1488"
   inkscape:connector-curvature="0" /><path
   style="opacity:0.72399998;fill:#21b2a6;fill-opacity:1;stroke:none;stroke-width:0.07190542;stroke-opacity:1"
   d="m 79.064679,85.053177 c 0.9189,-0.447321 1.685876,-0.765531 4.206467,-1.745217 3.347759,-1.301183 6.281124,-2.568347 9.239847,-3.991459 3.253955,-1.565115 3.495155,-1.583608 5.860292,-0.449322 2.119695,1.016574 4.535005,2.063927 8.649845,3.750832 3.31453,1.358812 5.7847,2.460073 5.5401,2.469907 -0.0458,0.0018 -0.53116,-0.154895 -1.07858,-0.348302 -4.17663,-1.475641 -9.42265,-3.669695 -14.108372,-5.900575 l -1.392486,-0.662965 -0.333244,0.143405 c -0.183284,0.07887 -1.045107,0.48221 -1.915163,0.896303 -3.47865,1.655625 -7.738513,3.458721 -11.504867,4.86973 -1.519181,0.569139 -3.794218,1.3661 -3.87943,1.358991 -0.04145,-0.0035 0.280563,-0.179556 0.715591,-0.391328 z"
   id="path1492"
   inkscape:connector-curvature="0" /></svg>