<?xml version="1.0" encoding="UTF-8" standalone="no"?>
<svg
   xmlns:dc="http://purl.org/dc/elements/1.1/"
   xmlns:cc="http://creativecommons.org/ns#"
   xmlns:rdf="http://www.w3.org/1999/02/22-rdf-syntax-ns#"
   xmlns:svg="http://www.w3.org/2000/svg"
   xmlns="http://www.w3.org/2000/svg"
   xmlns:sodipodi="http://sodipodi.sourceforge.net/DTD/sodipodi-0.dtd"
   xmlns:inkscape="http://www.inkscape.org/namespaces/inkscape"
   aria-hidden="true"
   focusable="false"
   data-prefix="fas"
   data-icon="paste"
   class="svg-inline--fa fa-paste fa-w-14"
   role="img"
   viewBox="0 0 448 512"
   version="1.1"
   id="svg31"
   sodipodi:docname="reports.svg"
   inkscape:version="0.92.4 (unknown)">
  <metadata
     id="metadata37">
    <rdf:RDF>
      <cc:Work
         rdf:about="">
        <dc:format>image/svg+xml</dc:format>
        <dc:type
           rdf:resource="http://purl.org/dc/dcmitype/StillImage" />
      </cc:Work>
    </rdf:RDF>
  </metadata>
  <defs
     id="defs35" />
  <sodipodi:namedview
     pagecolor="#ffffff"
     bordercolor="#666666"
     borderopacity="1"
     objecttolerance="10"
     gridtolerance="10"
     guidetolerance="10"
     inkscape:pageopacity="0"
     inkscape:pageshadow="2"
     inkscape:window-width="1920"
     inkscape:window-height="1002"
     id="namedview33"
     showgrid="false"
     inkscape:zoom="0.97641503"
     inkscape:cx="158.85701"
     inkscape:cy="228.77494"
     inkscape:window-x="0"
     inkscape:window-y="41"
     inkscape:window-maximized="1"
     inkscape:current-layer="svg31" />
  <path
     fill="currentColor"
     d="M128 184c0-30.879 25.122-56 56-56h136V56c0-13.255-10.745-24-24-24h-80.61C204.306 12.89 183.637 0 160 0s-44.306 12.89-55.39 32H24C10.745 32 0 42.745 0 56v336c0 13.255 10.745 24 24 24h104V184zm32-144c13.255 0 24 10.745 24 24s-10.745 24-24 24-24-10.745-24-24 10.745-24 24-24zm184 248h104v200c0 13.255-10.745 24-24 24H184c-13.255 0-24-10.745-24-24V184c0-13.255 10.745-24 24-24h136v104c0 13.2 10.8 24 24 24zm104-38.059V256h-96v-96h6.059a24 24 0 0 1 16.97 7.029l65.941 65.941a24.002 24.002 0 0 1 7.03 16.971z"
     id="path29" />
  <path
     style="opacity:0.72399998;fill:#21b2a6;fill-opacity:1;stroke:none;stroke-width:0.72418672;stroke-opacity:1"
     d="M 17.024761,414.58371 C 10.586242,412.56854 5.2877904,407.6503 2.0947123,400.72506 L 0.44356436,397.14399 V 224.06337 50.982744 L 2.5503817,46.420019 C 5.1361544,40.820022 10.159869,36.081229 15.713679,34.003283 19.55759,32.565092 21.092755,32.51594 62.207647,32.514688 l 42.518803,-0.0013 2.16959,-3.438592 c 3.47847,-5.513052 11.74334,-13.708464 18.06981,-17.917947 10.97458,-7.3022372 21.78111,-10.50853712 35.38928,-10.500013 21.15059,0.013249 40.86151,10.545214 52.47933,28.040826 l 2.51383,3.785645 43.54056,0.197382 43.54057,0.19739 3.60205,1.772523 c 4.5943,2.260801 9.02092,6.687417 11.28172,11.281725 l 1.77252,3.602047 0.19928,38.925035 0.19928,38.925031 h -67.92973 c -43.54844,0 -70.13228,0.27576 -74.06632,0.76831 -13.42589,1.68095 -23.63861,6.76126 -33.29359,16.56189 -6.71391,6.81519 -10.07758,11.9052 -12.83905,19.4284 -3.87433,10.55502 -3.76478,6.69512 -3.79198,133.60632 l -0.0253,117.86139 -53.770862,-0.0485 C 32.119504,415.52475 19.326557,415.3041 17.024731,414.58366 Z M 169.66838,86.287787 c 4.51275,-2.000848 9.69967,-6.891455 12.06716,-11.377806 1.71366,-3.247352 1.92615,-4.44891 1.92615,-10.891876 0,-6.455679 -0.20953,-7.634962 -1.92999,-10.862801 -2.50068,-4.69162 -7.27434,-9.279313 -11.82845,-11.367634 -2.919,-1.338532 -4.8844,-1.661117 -10.13861,-1.664067 -6.05509,-0.0034 -6.84323,0.172846 -11.10456,2.483202 -5.07651,2.752329 -8.67538,6.653738 -11.11979,12.05456 -2.25134,4.974256 -2.26497,13.709718 -0.0291,18.647693 3.20841,7.085855 8.18532,11.545694 15.58082,13.962052 4.21833,1.378272 12.33608,0.896717 16.57636,-0.983323 z"
     id="path49"
     inkscape:connector-curvature="0" />
  <path
     style="opacity:0.72399998;fill:#21b2a6;fill-opacity:1;stroke:none;stroke-width:0.72418672;stroke-opacity:1"
     d="m 178.42955,510.89346 c -6.88835,-1.68044 -12.74086,-6.59073 -16.03043,-13.44961 l -1.91029,-3.98303 V 335.95021 178.4396 l 2.02354,-4.12068 c 2.52329,-5.13832 8.64282,-10.87611 13.28767,-12.45877 3.04201,-1.03652 11.04542,-1.16312 73.53066,-1.16312 h 70.11711 v 52.1058 c 0,52.75612 0.18148,56.90058 2.7129,61.95361 2.14186,4.27541 5.9298,8.10168 10.4428,10.54849 l 4.58687,2.48687 55.22896,0.19853 55.22897,0.19855 -0.19078,102.99806 -0.19077,102.99807 -1.63287,3.31356 c -2.6536,5.38492 -6.332,9.0901 -11.59847,11.6829 l -4.8424,2.38402 -123.48929,0.12565 c -97.9649,0.0997 -124.27161,-0.0652 -127.27418,-0.79768 z"
     id="path51"
     inkscape:connector-curvature="0" />
  <path
     style="opacity:0.72399998;fill:#21b2a6;fill-opacity:1;stroke:none;stroke-width:0.72418672;stroke-opacity:1"
     d="m 40.99802,414.91017 c -23.073802,-0.3724 -24.014783,-0.44315 -27.279028,-2.05115 -4.1058321,-2.02258 -8.5583819,-6.7107 -11.0575623,-11.6426 L 0.80565771,397.55423 V 224.00776 50.461297 L 3.1032741,46.150527 C 4.3669632,43.779604 6.9759247,40.423666 8.9009665,38.692888 15.266906,32.969362 13.805463,33.13348 62.232431,32.703793 l 42.960009,-0.38118 1.8724,-2.981109 c 2.67075,-4.252193 11.38324,-13.093724 16.55474,-16.799936 10.74212,-7.6984577 21.92737,-11.2299439 35.78297,-11.2976471 13.73207,-0.0671 25.79616,3.3988086 35.97372,10.3349351 5.02186,3.422455 12.89312,11.172831 16.5479,16.293754 l 3.14666,4.40896 17.97067,0.477731 c 9.88387,0.262752 29.634,0.478437 43.88919,0.479299 24.10314,0.0014 26.10671,0.09859 28.60538,1.386722 4.20399,2.167283 8.27398,6.064916 10.75648,10.300949 l 2.27613,3.883913 0.40292,39.287129 0.40292,39.287127 H 249.9841 c -59.21462,0 -70.32778,0.16346 -75.78243,1.11468 -11.86307,2.06874 -19.7012,6.22671 -29.29725,15.54162 -3.48777,3.38557 -7.55812,8.07582 -9.04522,10.42279 -3.67334,5.79731 -6.65745,14.29298 -7.56627,21.541 -0.49534,3.95041 -0.7546,46.14483 -0.7546,122.81212 v 116.7941 l -31.321074,-0.15744 c -17.226591,-0.0866 -42.075248,-0.331 -55.219236,-0.54314 z M 169.79536,86.470558 c 3.83656,-1.82057 9.5824,-7.197258 11.89453,-11.130352 1.82479,-3.104082 1.97291,-3.954123 1.97291,-11.322101 0,-7.360688 -0.14937,-8.220136 -1.96555,-11.309543 -3.08658,-5.250415 -9.37044,-10.559462 -14.13919,-11.945774 -9.45597,-2.748925 -19.51741,-0.06657 -25.57845,6.819138 -4.794,5.446272 -6.10498,8.973257 -6.10934,16.436179 -0.004,5.792813 0.23493,6.98882 2.14267,10.753955 2.60605,5.143312 7.83363,10.01212 12.91807,12.031486 4.70742,1.869625 14.59031,1.695176 18.86435,-0.332988 z"
     id="path53"
     inkscape:connector-curvature="0" />
  <path
     style="opacity:0.72399998;fill:#21b2a6;fill-opacity:1;stroke:none;stroke-width:0.72418672;stroke-opacity:1"
     d="m 177.50391,510.22532 c -6.27242,-1.69268 -11.64435,-6.56022 -15.46487,-14.01284 -1.09065,-2.12751 -1.18812,-15.27409 -1.18812,-160.25516 V 178.01981 l 1.52835,-2.99581 c 2.37029,-4.64616 8.19164,-10.34632 12.44715,-12.18804 l 3.76707,-1.63034 70.42716,-0.35525 70.42716,-0.35524 0.005,50.25088 c 0.006,50.5004 0.3887,60.23333 2.53471,64.38324 1.98659,3.84164 6.17192,7.89668 10.8514,10.5136 l 4.49016,2.51104 h 55.08408 55.08408 l -0.38398,103.37765 -0.38397,103.37765 -1.85326,3.4677 c -2.27738,4.26131 -6.78611,8.51007 -11.64199,10.97073 l -3.66219,1.85577 -124.40315,-0.0489 c -95.24333,-0.0374 -125.16777,-0.25523 -127.66528,-0.9292 z"
     id="path55"
     inkscape:connector-curvature="0" />
  <path
     style="opacity:0.72399998;fill:#21b2a6;fill-opacity:1;stroke:none;stroke-width:0.72418672;stroke-opacity:1"
     d="m 190.54257,510.51571 c -12.72179,-0.35908 -14.41687,-0.55654 -17.0999,-1.99196 -3.47341,-1.85826 -8.91245,-7.66183 -10.8663,-11.59455 -1.32046,-2.65784 -1.37013,-7.71938 -1.57858,-160.85704 l -0.21523,-158.11285 1.96721,-3.35679 c 2.72227,-4.6452 7.94098,-9.65939 12.05986,-11.58723 l 3.458,-1.61852 70.59009,-0.46914 70.59009,-0.46913 0.0129,49.9071 c 0.007,27.44891 0.31524,52.7812 0.68482,56.29399 0.99625,9.46929 5.03493,15.2493 13.73596,19.65846 l 3.62286,1.83584 54.88123,-3e-5 54.88121,-4e-5 -0.25614,103.00682 -0.25615,103.00682 -1.7601,3.47339 c -2.23999,4.4204 -6.16741,8.34634 -11.27005,11.26576 l -4.01434,2.29678 -112.52289,-0.14454 c -61.88758,-0.0795 -118.87761,-0.32392 -126.64452,-0.54314 z"
     id="path57"
     inkscape:connector-curvature="0" />
  <path
     style="opacity:0.72399998;fill:#21b2a6;fill-opacity:1;stroke:none;stroke-width:0.72418672;stroke-opacity:1"
     d="m 197.06025,510.51059 -20.63932,-0.39348 -3.36826,-1.98007 c -3.83423,-2.25398 -8.52193,-7.2792 -10.49827,-11.25416 -1.29122,-2.59697 -1.3501,-8.61684 -1.57437,-160.95342 l -0.23298,-158.25555 2.90333,-4.34776 c 3.13686,-4.69748 6.70673,-7.91721 11.47581,-10.35021 3.00025,-1.53061 3.50982,-1.54466 73.62183,-2.02908 l 70.60068,-0.4878 0.27062,54.25194 c 0.31137,62.42002 -0.0123,59.21284 6.64763,65.87276 2.09148,2.09148 5.4755,4.65037 7.52004,5.68641 l 3.71733,1.88372 54.88123,-9e-5 54.88121,-8e-5 -0.24343,102.98179 -0.24345,102.9818 -1.68527,3.32574 c -2.14687,4.23664 -6.69662,8.78956 -11.56941,11.57749 l -3.81522,2.18285 -106.00521,-0.14966 c -58.30286,-0.0823 -115.29289,-0.32672 -126.64452,-0.54314 z"
     id="path59"
     inkscape:connector-curvature="0" />
  <path
     style="opacity:0.72399998;fill:#21b2a6;fill-opacity:1;stroke:none;stroke-width:0.72418672;stroke-opacity:1"
     d="m 53.671287,414.90951 c -34.540011,-0.40462 -35.97002,-0.47606 -39.214106,-1.95889 -4.173466,-1.90763 -8.5506704,-6.21148 -11.4380108,-11.2463 L 0.81924932,397.86818 V 224.06337 50.258557 L 3.0785469,46.318456 C 6.0136735,41.199743 11.716745,35.683552 15.126939,34.664871 c 3.472835,-1.037392 35.155523,-2.050548 65.847606,-2.10569 l 24.044415,-0.0432 2.35396,-3.439887 c 3.78016,-5.524001 13.56336,-14.811955 19.4501,-18.465499 2.99216,-1.8570467 7.71748,-4.2406504 10.50071,-5.2968965 17.9211,-6.8011111 41.35059,-4.50481681 56.71444,5.5585085 5.56866,3.647474 15.63747,13.501909 18.59858,18.202592 2.03913,3.23706 2.35708,3.443557 5.42492,3.5233 1.79236,0.04659 21.67129,0.29337 44.17539,0.5484 40.11093,0.45456 40.97432,0.494539 43.85046,2.03046 3.76099,2.00845 8.46795,6.720111 10.6962,10.706879 l 1.74585,3.123667 0.32951,39.162174 0.32951,39.162171 -72.10801,0.22167 c -71.78988,0.22069 -72.13295,0.22871 -77.75702,1.81649 -7.84014,2.2134 -14.65586,5.98492 -21.28999,11.78091 -13.60139,11.88303 -18.65241,21.66625 -19.81277,38.37496 -0.34576,4.97879 -0.64076,60.13466 -0.65557,122.5686 l -0.0269,113.51627 -19.0099,-0.14066 c -10.455446,-0.0774 -35.14116,-0.32962 -54.857143,-0.56058 z M 169.54116,86.66645 c 3.54944,-1.506207 9.80351,-7.336866 12.14873,-11.326244 1.82479,-3.104082 1.97291,-3.954123 1.97291,-11.322101 0,-7.360688 -0.14937,-8.220136 -1.96555,-11.309543 -2.85941,-4.863987 -9.25033,-10.41822 -13.68089,-11.889819 -5.15642,-1.712686 -14.2977,-1.203692 -18.64337,1.038077 -4.73279,2.441468 -9.2552,6.986658 -11.50017,11.5581 -1.74108,3.545355 -2.00634,4.947214 -2.00634,10.603185 0,5.672675 0.26292,7.053095 2.02798,10.647434 2.47652,5.043142 7.90963,10.101768 13.03655,12.138007 3.0446,1.209211 4.94124,1.441848 9.91991,1.216771 3.38557,-0.153057 7.29618,-0.762301 8.69024,-1.353867 z"
     id="path61"
     inkscape:connector-curvature="0" />
  <path
     style="opacity:0.72399998;fill:#21b2a6;fill-opacity:1;stroke:none;stroke-width:0.72418672;stroke-opacity:1"
     d="M 52.585007,414.89578 C 19.653457,414.47121 17.652538,414.36976 14.565205,412.9681 10.566906,411.15285 5.6882411,406.35664 2.9057136,401.50566 L 0.81924932,397.86818 0.81245355,224.20845 C 0.80623974,65.421907 0.90632082,50.350228 1.9810036,48.231081 4.0304355,44.189842 8.1855779,39.180049 11.406382,36.867042 c 4.468208,-3.208824 8.830393,-3.53751 54.442129,-4.10216 l 39.334229,-0.486937 2.28342,-3.320868 c 2.8869,-4.198516 10.54444,-11.879066 15.72705,-15.774305 12.44001,-9.349886 29.06707,-13.3874767 45.88,-11.1411543 18.10636,2.4191338 30.6097,10.3349203 44.64334,28.2634083 l 1.81047,2.312938 43.81329,0.536256 c 42.61567,0.521596 43.89248,0.577955 46.71004,2.061808 3.35273,1.765694 8.09658,6.522487 10.68478,10.713931 l 1.79894,2.913269 0.31767,39.226718 0.31766,39.226714 -72.09842,0.25931 c -71.73097,0.25799 -72.12766,0.26746 -77.83618,1.85678 -9.77423,2.72128 -17.12484,7.38659 -26.38361,16.74527 -6.04934,6.1146 -9.00603,10.68765 -11.74602,18.16727 -1.97428,5.38943 -2.32999,7.53366 -2.882,17.37315 -0.34635,6.1737 -0.64213,61.32957 -0.65728,122.5686 l -0.0276,111.34371 -20.09618,-0.13341 c -11.0529,-0.0734 -35.738614,-0.33508 -54.857143,-0.58156 z M 169.92859,86.407336 c 3.71807,-1.764343 9.48255,-7.18919 11.74923,-11.056998 1.81086,-3.08999 1.96084,-3.956788 1.96084,-11.332233 0,-7.375446 -0.14998,-8.242244 -1.96084,-11.332235 -2.30233,-3.928626 -8.03766,-9.291277 -11.92712,-11.152096 -1.67456,-0.801153 -5.00237,-1.430495 -8.53769,-1.614611 -7.88688,-0.41074 -12.96028,1.479615 -18.29883,6.818163 -4.50374,4.503743 -6.5199,8.603161 -7.13757,14.51265 -1.18324,11.320686 5.36077,21.962118 15.80831,25.706395 4.65893,1.669707 14.27451,1.381907 18.34367,-0.549035 z"
     id="path63"
     inkscape:connector-curvature="0" />
  <path
     style="opacity:0.72399998;fill:#21b2a6;fill-opacity:1;stroke:none;stroke-width:0.72418672;stroke-opacity:1"
     d="M 49.68826,414.90423 C 19.561318,414.49515 17.64637,414.39025 14.565205,412.98006 10.560052,411.14699 5.682821,406.34719 2.9057136,401.50566 L 0.81924932,397.86818 0.81245355,224.20845 C 0.80623974,65.421907 0.90632082,50.350228 1.9810036,48.231081 4.031609,44.187529 8.186276,39.179548 11.412153,36.862898 c 4.472783,-3.212109 8.302014,-3.501136 54.0742,-4.081469 l 39.696257,-0.503297 2.27079,-3.320961 c 5.84073,-8.541853 18.32602,-18.787341 27.68889,-22.7216305 14.47176,-6.0810515 33.04284,-6.38011149 48.16301,-0.7755945 9.78957,3.62865 21.16751,12.643001 28.8943,22.891963 l 3.13934,4.164074 6.61172,0.06439 c 3.63645,0.03541 23.39474,0.29624 43.90733,0.579613 42.44364,0.586343 40.00914,0.215179 46.38886,7.072456 6.80839,7.318035 6.26046,3.380628 6.66084,47.864874 l 0.3536,39.287124 -62.72994,0.0333 c -34.50146,0.0183 -67.78114,0.30014 -73.95483,0.62625 -18.00944,0.95131 -24.86524,4.02156 -38.14599,17.08301 -7.06626,6.94957 -8.47615,8.75151 -11.04916,14.12164 -5.72124,11.94076 -5.30858,1.98034 -5.64801,136.32815 l -0.30327,120.03395 -22.93881,-0.13692 c -12.616342,-0.0753 -37.277701,-0.33162 -54.80302,-0.5696 z M 170.466,86.003428 c 3.58223,-1.827514 10.00973,-8.122333 11.77075,-11.527785 1.84577,-3.569338 1.84577,-17.345739 0,-20.91508 -1.78971,-3.460918 -8.19034,-9.691601 -12.02599,-11.706687 -4.55959,-2.395416 -15.35955,-2.474953 -20.39251,-0.15018 -4.4041,2.034301 -9.89825,7.556537 -12.11385,12.175795 -2.47721,5.164675 -2.51932,15.163278 -0.0839,19.915134 3.6355,7.093315 8.86322,11.735344 15.26104,13.551228 4.56496,1.295671 13.79447,0.591081 17.58444,-1.342425 z"
     id="path65"
     inkscape:connector-curvature="0" />
  <path
     style="opacity:0.72399998;fill:#21b2a6;fill-opacity:1;stroke:none;stroke-width:0.72418672;stroke-opacity:1"
     d="M 74.672702,415.16711 C 73.676945,415.04247 60.3157,414.83005 44.981047,414.69506 17.753884,414.45537 17.02696,414.41157 13.992181,412.82766 10.091264,410.79169 5.6006393,406.2038 2.8994143,401.49463 L 0.81924932,397.86818 0.81245355,224.20845 C 0.80624727,65.648978 0.9075376,50.347198 1.9773223,48.231081 4.0327983,44.16519 8.7353812,38.525988 11.714571,36.554453 c 1.980746,-1.310795 4.528116,-2.127096 8.118857,-2.601677 2.877867,-0.380362 23.232183,-0.912247 45.231815,-1.181968 l 39.999327,-0.490402 3.68919,-4.961205 c 6.92019,-9.306245 18.42647,-18.1551976 28.65567,-22.0377573 17.66044,-6.7031358 41.23565,-4.48085709 56.02989,5.2815663 6.26896,4.136761 12.53607,9.952508 17.45636,16.199127 l 4.53213,5.753846 9.46403,0.06193 c 37.92155,0.248118 78.49249,1.256645 80.29408,1.99598 2.82946,1.161155 9.53815,7.660787 11.60995,11.248169 l 1.72572,2.98813 0.44015,39.208312 0.44014,39.208316 -71.49047,0.36179 c -78.68145,0.39818 -77.08332,0.30739 -86.8177,4.93185 -13.73981,6.52732 -27.48984,22.07325 -31.06563,35.12311 -1.88807,6.89054 -2.39868,37.67552 -2.44623,147.48627 l -0.0435,100.48091 -25.52758,-0.10851 C 87.9706,415.44254 75.668478,415.29176 74.672722,415.16711 Z M 169.98304,86.120457 c 3.60935,-1.566691 10.38951,-8.184548 12.11875,-11.828656 1.67272,-3.524986 1.7754,-16.544468 0.16095,-20.40837 -1.36173,-3.259083 -8.14445,-9.976285 -12.21469,-12.096718 -4.54649,-2.368534 -15.40579,-2.353909 -20.24099,0.02726 -4.79027,2.359036 -9.72104,7.390849 -11.89444,12.138181 -2.64739,5.782662 -2.65912,14.323621 -0.0276,20.071699 3.06367,6.691956 9.69842,12.180726 16.44818,13.607193 3.73866,0.790117 12.23988,-0.03049 15.64981,-1.510588 z"
     id="path67"
     inkscape:connector-curvature="0" />
  <path
     style="opacity:0.72399998;fill:#21b2a6;fill-opacity:1;stroke:none;stroke-width:0.72418672;stroke-opacity:1"
     d="m 352.03621,208.13126 v -47.43423 h 5.40423 c 3.71661,0 6.71307,0.48122 9.59548,1.54099 3.93241,1.44584 6.3915,3.73409 39.82126,37.05497 40.48887,40.35698 40.09172,39.86544 40.63956,50.29796 l 0.31374,5.97454 h -47.88713 -47.88714 z"
     id="path69"
     inkscape:connector-curvature="0" />
  <path
     style="opacity:0.72399998;fill:#21b2a6;fill-opacity:1;stroke:none;stroke-width:0.72418672;stroke-opacity:1"
     d="m 352.03621,208.13126 v -47.43423 h 3.12584 c 4.88429,0 11.47345,1.42674 14.25464,3.08653 3.15575,1.88333 66.87969,65.15747 71.76298,71.25643 4.48977,5.60748 5.42872,7.91679 6.06352,14.91305 l 0.50924,5.61245 h -47.85811 -47.85811 z"
     id="path71"
     inkscape:connector-curvature="0" />
  <path
     style="opacity:0.72399998;fill:#21b2a6;fill-opacity:1;stroke:none;stroke-width:0.72418672;stroke-opacity:1"
     d="m 352.03621,208.02727 v -47.53823 l 5.25035,0.47848 c 9.96343,0.90798 11.27868,1.66904 23.71712,13.72387 23.78914,23.05547 59.85397,59.69599 62.10893,63.10036 2.62251,3.95927 3.43161,6.56002 4.12135,13.24757 l 0.46681,4.52617 h -47.83228 -47.83228 z"
     id="path73"
     inkscape:connector-curvature="0" />
  <path
     style="opacity:0.72399998;fill:#21b2a6;fill-opacity:1;stroke:none;stroke-width:0.72418672;stroke-opacity:1"
     d="m 352.03621,208.02727 v -47.53823 l 5.25035,0.47848 c 10.56044,0.96239 9.93966,0.52326 34.73254,24.56947 26.81075,26.00332 50.67532,50.82638 52.72343,54.841 1.20834,2.36855 2.76094,10.11114 2.86396,14.28226 0.0177,0.71528 -10.00777,0.90524 -47.77396,0.90524 h -47.79632 z"
     id="path75"
     inkscape:connector-curvature="0" />
  <path
     style="opacity:0.72399998;fill:#21b2a6;fill-opacity:1;stroke:none;stroke-width:0.72418672;stroke-opacity:1"
     d="m 352.03621,208.02727 v -47.53823 l 5.25035,0.47848 c 9.71626,0.88545 11.17081,1.71081 22.89836,12.99317 33.42615,32.15725 62.15642,61.71059 64.54659,66.39572 1.25694,2.46379 2.83971,10.11789 2.883,13.94175 0.0135,1.19432 -2.739,1.26733 -47.78198,1.26733 h -47.79632 z"
     id="path77"
     inkscape:connector-curvature="0" />
</svg>
